<svg width="150" height="75" viewBox="0 0 150 75" fill="none" xmlns="http://www.w3.org/2000/svg">
<g clip-path="url(#clip0_201_1322)">
<path fill-rule="evenodd" clip-rule="evenodd" d="M31.0647 51.6009V56.8786H37.6626V51.6009H40.6485V64.9521H37.6626V59.4409H31.0647V64.9521H28V51.6009H31.0647ZM121.415 51.6009V64.9521H118.429V51.6009H121.415ZM60.7618 51.6009V62.3911H66.1834C66.916 62.3911 67.1026 62.1876 67.1234 61.4665L67.1261 61.3039V51.6009H70.112V62.0032C70.112 64.7008 67.7675 64.9385 67.6058 64.9508H57.7773V51.6009H60.7631H60.7618ZM82.6914 51.6009C82.8518 51.6146 85.105 51.8358 85.2667 54.2698L85.275 54.5498V64.9521H82.2117V55.2477C82.2117 54.4501 82.0735 54.1947 81.4169 54.1632L81.269 54.1605H75.9262V64.9508H72.8615V51.6009H82.6914V51.6009ZM45.5987 51.6009L49.2122 57.2665L52.8271 51.6009H56.5981L50.7839 60.1389V64.9521H47.7981V60.2167L41.9065 51.6009H45.5987V51.6009ZM97.6098 51.6009C100.203 51.6009 100.438 54.2397 100.438 54.2397V62.3229C100.419 62.4909 100.133 64.7732 97.8779 64.9412L97.6098 64.9521H87.9471V51.6009H97.6098ZM115.837 51.6009V64.9521H112.774V61.0704H106.017V64.9521H103.031V55.0155C103.031 51.8754 105.579 51.6159 106.197 51.5995H115.837V51.6009ZM96.432 54.1619H90.9316V62.3898H96.432C97.3112 62.3898 97.3706 61.4446 97.3734 61.3176V55.2491C97.3734 55.2491 97.3734 54.1619 96.432 54.1619V54.1619ZM112.774 54.1619H107.037C107.037 54.1619 106.017 54.1619 106.017 55.4048V58.5872H112.774V54.1619V54.1619ZM74.747 9.52578C93.8387 9.52578 109.396 17.2879 109.396 26.8366C109.396 36.3074 93.8387 44.0709 74.747 44.0709C55.5766 44.0709 40.0997 36.3074 40.0997 26.8366C40.0997 17.2879 55.5766 9.52441 74.747 9.52441V9.52578ZM76.3188 29.1668C73.3329 29.709 70.4258 30.7184 68.1477 31.5707C60.7631 34.1344 57.3059 36.851 56.5981 37.4711C55.6554 38.2483 56.3631 38.6362 57.2271 38.8684C62.2547 40.3435 69.8756 41.4308 74.747 41.275C78.2831 41.1207 80.2474 37.3168 81.1114 35.686C84.7249 28.0017 78.1255 28.8553 76.3188 29.1654V29.1668ZM98.9451 18.3751C98.7889 18.6073 92.9734 32.0378 86.139 39.3342C85.3538 40.1892 86.2178 40.3449 87.3181 40.1113C98.6313 37.859 106.489 32.7357 106.489 26.8352C106.489 23.5763 104.209 20.6261 100.203 18.2194C99.6529 17.8315 99.1815 18.0651 98.9451 18.3751V18.3751ZM62.0971 13.5619C50.7853 15.735 42.9294 20.8596 42.9294 26.7588C42.9294 30.019 45.2863 33.0471 49.215 35.4524C49.7638 35.7638 50.3139 35.5316 50.4715 35.2981C50.6291 34.988 56.4433 21.5576 63.2776 14.2612C64.1416 13.484 63.1989 13.3283 62.0985 13.5619H62.0971ZM74.6682 12.3982C71.1322 12.4747 69.1692 16.2786 68.3841 17.9094C64.6904 25.595 71.2898 24.8179 73.0979 24.43C76.0838 23.8864 78.9895 22.877 81.2676 22.0233C88.6535 19.461 92.1108 16.8222 92.8171 16.2007C93.7613 15.347 93.0535 15.037 92.1896 14.7256C87.1606 13.2505 79.541 12.1646 74.6682 12.3982V12.3982Z" fill="#16182D"/>
</g>
<defs>
<clipPath id="clip0_201_1322">
<rect width="94" height="56" fill="white" transform="translate(28 9)"/>
</clipPath>
</defs>
</svg>
