<svg width="218" height="53" viewBox="0 0 218 53" fill="none" xmlns="http://www.w3.org/2000/svg">
<path fill-rule="evenodd" clip-rule="evenodd" d="M206.999 0C200.923 0 195.998 4.92514 195.998 11.0005C195.998 17.0758 200.923 22.0009 206.999 22.0009C213.074 22.0009 217.999 17.0758 217.999 11.0005C217.999 4.92514 213.074 0 206.999 0ZM206.05 12.4672L198.932 10.2205L212.65 5.86691L208.297 19.586L206.05 12.4672Z" fill="#FFE4CF"/>
<path fill-rule="evenodd" clip-rule="evenodd" d="M188.854 16.3401C188.793 16.3064 188.732 16.2733 188.671 16.2407C187.628 15.6647 186.416 15.3767 185.037 15.3767C183.304 15.3767 181.675 15.7047 180.151 16.3607C178.643 17.0168 177.311 17.9288 176.156 19.0969C175.001 20.2489 174.094 21.585 173.437 23.1051C172.779 24.6252 172.45 26.2572 172.45 28.0013C172.45 29.7454 172.779 31.3775 173.437 32.8976C174.094 34.4176 175.001 35.7617 176.156 36.9298C177.311 38.0818 178.643 38.9859 180.151 39.6419C181.675 40.2979 183.304 40.6259 185.037 40.6259C186.416 40.6259 187.628 40.3459 188.671 39.7859C189.73 39.2099 190.628 38.4658 191.366 37.5538V40.3379C191.366 41.17 191.182 41.898 190.813 42.522C190.444 43.1461 189.938 43.6661 189.296 44.0821C188.655 44.4981 187.925 44.8102 187.106 45.0182C186.304 45.2262 185.462 45.3302 184.579 45.3302C183.761 45.3302 182.967 45.1702 182.197 44.8502C181.443 44.5461 180.769 44.1061 180.175 43.5301C179.598 42.9541 179.14 42.266 178.803 41.466L172.739 44.2261C173.413 45.7462 174.351 47.0903 175.555 48.2583C176.758 49.4264 178.138 50.3384 179.694 50.9945C181.25 51.6665 182.879 52.0025 184.579 52.0025C186.376 52.0025 188.077 51.7305 189.681 51.1865C191.302 50.6425 192.73 49.8584 193.965 48.8344C195.217 47.8103 196.203 46.5783 196.925 45.1382C197.647 43.7141 198.008 42.114 198.008 40.3379V26.5021C193.702 24.5571 190.351 20.8704 188.854 16.3401ZM13.0921 15.3287C15.4346 15.3287 17.5604 15.8967 19.4697 17.0328C21.395 18.1688 22.9272 19.6969 24.0664 21.617C25.2055 23.5211 25.7751 25.6332 25.7751 27.9533C25.7751 29.6974 25.4462 31.3375 24.7884 32.8736C24.1305 34.4096 23.216 35.7617 22.0448 36.9298C20.8896 38.0818 19.5419 38.9859 18.0016 39.6419C16.4774 40.2979 14.8409 40.6259 13.0921 40.6259C11.7123 40.6259 10.4849 40.3219 9.40995 39.7139C8.33499 39.1059 7.41244 38.3378 6.64232 37.4098V40.0019H0V4.00012H6.64232V18.5448C7.41244 17.6008 8.33499 16.8328 9.40995 16.2407C10.4849 15.6327 11.7123 15.3287 13.0921 15.3287ZM12.9958 34.2176C14.1029 34.2176 15.1057 33.9376 16.0041 33.3776C16.9187 32.8176 17.6406 32.0655 18.1701 31.1215C18.6996 30.1614 18.9643 29.1054 18.9643 27.9533C18.9643 26.8013 18.6915 25.7532 18.146 24.8092C17.6166 23.8651 16.8946 23.1131 15.9801 22.553C15.0816 21.977 14.0868 21.689 12.9958 21.689C11.9048 21.689 10.9181 21.977 10.0357 22.553C9.16929 23.1131 8.47938 23.8731 7.96597 24.8332C7.4686 25.7772 7.21991 26.8173 7.21991 27.9533C7.21991 29.1214 7.4686 30.1774 7.96597 31.1215C8.47938 32.0655 9.16929 32.8176 10.0357 33.3776C10.9181 33.9376 11.9048 34.2176 12.9958 34.2176ZM39.2062 40.6259C36.9921 40.6259 34.9706 40.0579 33.1415 38.9219C31.3285 37.7858 29.8765 36.2577 28.7855 34.3376C27.7105 32.4175 27.1731 30.2974 27.1731 27.9773C27.1731 26.2332 27.4859 24.6012 28.1117 23.0811C28.7374 21.545 29.5957 20.2009 30.6868 19.0489C31.7938 17.8808 33.0773 16.9688 34.5374 16.3127C35.9974 15.6567 37.5537 15.3287 39.2062 15.3287C41.1155 15.3287 42.8563 15.7367 44.4286 16.5527C46.017 17.3688 47.3567 18.4808 48.4477 19.8889C49.5548 21.297 50.341 22.8891 50.8062 24.6652C51.2876 26.4412 51.3678 28.2893 51.0469 30.2094H34.3448C34.5534 30.9135 34.8743 31.5535 35.3075 32.1295C35.7567 32.6896 36.3022 33.1376 36.944 33.4736C37.6018 33.8096 38.3559 33.9856 39.2062 34.0016C40.0406 34.0176 40.8107 33.8256 41.5166 33.4256C42.2226 33.0256 42.8242 32.4895 43.3216 31.8175L50.1083 33.3776C49.1296 35.5057 47.6696 37.2498 45.7282 38.6098C43.7869 39.9539 41.6129 40.6259 39.2062 40.6259ZM34.1042 25.3132H44.3324C44.1238 24.5131 43.7708 23.7931 43.2735 23.1531C42.7761 22.513 42.1744 22.009 41.4685 21.641C40.7786 21.273 40.0245 21.089 39.2062 21.089C38.404 21.089 37.65 21.273 36.944 21.641C36.2541 22.009 35.6605 22.513 35.1631 23.1531C34.6818 23.7771 34.3288 24.4971 34.1042 25.3132ZM53.4267 4.00012V40.0019H60.069V4.00012H53.4267ZM74.9122 40.6259C72.6981 40.6259 70.6765 40.0579 68.8475 38.9219C67.0345 37.7858 65.5825 36.2577 64.4915 34.3376C63.4165 32.4175 62.879 30.2974 62.879 27.9773C62.879 26.2332 63.1919 24.6012 63.8176 23.0811C64.4433 21.545 65.3017 20.2009 66.3927 19.0489C67.4998 17.8808 68.7833 16.9688 70.2433 16.3127C71.7034 15.6567 73.2597 15.3287 74.9122 15.3287C76.8215 15.3287 78.5623 15.7367 80.1346 16.5527C81.723 17.3688 83.0627 18.4808 84.1537 19.8889C85.2607 21.297 86.0469 22.8891 86.5122 24.6652C86.9935 26.4412 87.0738 28.2893 86.7529 30.2094H70.0508C70.2594 30.9135 70.5803 31.5535 71.0135 32.1295C71.4627 32.6896 72.0082 33.1376 72.65 33.4736C73.3078 33.8096 74.0619 33.9856 74.9122 34.0016C75.7465 34.0176 76.5166 33.8256 77.2226 33.4256C77.9285 33.0256 78.5302 32.4895 79.0276 31.8175L85.8143 33.3776C84.8356 35.5057 83.3755 37.2498 81.4342 38.6098C79.4928 39.9539 77.3188 40.6259 74.9122 40.6259ZM69.8102 25.3132H80.0383C79.8298 24.5131 79.4768 23.7931 78.9794 23.1531C78.4821 22.513 77.8804 22.009 77.1745 21.641C76.4846 21.273 75.7305 21.089 74.9122 21.089C74.11 21.089 73.3559 21.273 72.65 21.641C71.9601 22.009 71.3664 22.513 70.8691 23.1531C70.3877 23.7771 70.0348 24.4971 69.8102 25.3132ZM114.051 16.0007H107.408L107.697 18.6409C106.815 17.6808 105.78 16.8888 104.593 16.2647C103.421 15.6407 102.098 15.3287 100.622 15.3287C98.905 15.3287 97.3006 15.6487 95.8085 16.2887C94.3324 16.9288 93.0248 17.8168 91.8856 18.9529C90.7465 20.0889 89.8641 21.401 89.2383 22.8891C88.6126 24.3771 88.2997 25.9772 88.2997 27.6893C88.2997 29.4814 88.6287 31.1615 89.2865 32.7296C89.9603 34.2816 90.8909 35.6497 92.0782 36.8338C93.2654 38.0178 94.6372 38.9459 96.1935 39.6179C97.7498 40.2899 99.4264 40.6259 101.223 40.6259C102.539 40.6259 103.686 40.3379 104.665 39.7619C105.644 39.1859 106.446 38.4338 107.072 37.5058L107.384 40.0019H114.051V16.0007ZM104.015 33.4256C103.133 33.9856 102.146 34.2656 101.055 34.2656C99.9639 34.2656 98.9692 33.9856 98.0707 33.4256C97.1722 32.8656 96.4502 32.1135 95.9047 31.1695C95.3753 30.2094 95.1105 29.1534 95.1105 28.0013C95.1105 26.8493 95.3753 25.8012 95.9047 24.8572C96.4342 23.8971 97.1482 23.1371 98.0466 22.5771C98.9451 22.017 99.9479 21.737 101.055 21.737C102.146 21.737 103.133 22.017 104.015 22.5771C104.898 23.1371 105.595 23.8891 106.109 24.8332C106.622 25.7772 106.879 26.8333 106.879 28.0013C106.879 29.1534 106.622 30.2094 106.109 31.1695C105.595 32.1135 104.898 32.8656 104.015 33.4256ZM124.847 40.4339C123.612 40.3379 122.424 40.0819 121.285 39.6659C120.146 39.2339 119.127 38.6579 118.229 37.9378C117.346 37.2018 116.656 36.3217 116.159 35.2977L121.742 32.8976C121.919 33.1536 122.184 33.4336 122.537 33.7376C122.89 34.0256 123.315 34.2816 123.812 34.5056C124.326 34.7297 124.919 34.8417 125.593 34.8417C126.09 34.8417 126.572 34.7857 127.037 34.6737C127.502 34.5456 127.879 34.3456 128.168 34.0736C128.457 33.7856 128.601 33.4096 128.601 32.9456C128.601 32.4335 128.417 32.0415 128.048 31.7695C127.679 31.4975 127.23 31.2975 126.7 31.1695C126.187 31.0255 125.689 30.9055 125.208 30.8095C123.732 30.5534 122.336 30.0974 121.02 29.4414C119.721 28.7694 118.662 27.9053 117.844 26.8493C117.025 25.7932 116.616 24.5291 116.616 23.0571C116.616 21.441 117.042 20.0489 117.892 18.8809C118.742 17.6968 119.849 16.7848 121.213 16.1447C122.577 15.5047 124.053 15.1847 125.641 15.1847C127.518 15.1847 129.259 15.5767 130.864 16.3607C132.468 17.1448 133.76 18.2488 134.738 19.6729L129.492 22.7691C129.283 22.465 129.011 22.177 128.674 21.905C128.353 21.617 127.976 21.377 127.542 21.185C127.125 20.977 126.676 20.857 126.195 20.825C125.569 20.777 124.999 20.817 124.486 20.945C123.973 21.057 123.563 21.273 123.259 21.593C122.97 21.913 122.825 22.345 122.825 22.8891C122.825 23.4171 123.058 23.8091 123.523 24.0651C123.989 24.3051 124.526 24.4891 125.136 24.6172C125.746 24.7292 126.283 24.8652 126.748 25.0252C128.144 25.4732 129.452 26.0492 130.671 26.7533C131.907 27.4413 132.901 28.2893 133.655 29.2974C134.409 30.3054 134.762 31.4895 134.714 32.8496C134.714 34.4336 134.241 35.8257 133.294 37.0258C132.348 38.2098 131.12 39.1139 129.612 39.7379C128.12 40.3459 126.532 40.578 124.847 40.4339ZM143.749 16.0007H137.107V40.0019H143.749V16.0007ZM138.045 12.2805C138.703 12.9206 139.514 13.2406 140.476 13.2406C141.439 13.2406 142.233 12.9206 142.859 12.2805C143.501 11.6405 143.821 10.8485 143.821 9.90442C143.821 8.96037 143.492 8.16833 142.835 7.5283C142.193 6.88827 141.399 6.56825 140.452 6.56825C139.505 6.56825 138.703 6.88827 138.045 7.5283C137.388 8.16833 137.059 8.96037 137.059 9.90442C137.059 10.8485 137.388 11.6405 138.045 12.2805ZM170.596 24.7372V40.0019H163.954V26.5613C163.954 25.7132 163.745 24.9532 163.328 24.2811C162.927 23.5931 162.381 23.0491 161.691 22.6491C161.017 22.249 160.263 22.049 159.429 22.049C158.595 22.049 157.833 22.249 157.143 22.6491C156.453 23.0491 155.907 23.5931 155.506 24.2811C155.105 24.9532 154.905 25.7132 154.905 26.5613V40.0019H148.262L148.238 16.0007H154.88L154.905 17.7768C155.707 17.0088 156.645 16.4087 157.72 15.9767C158.811 15.5447 159.959 15.3287 161.162 15.3287C162.911 15.3287 164.491 15.7527 165.903 16.6008C167.331 17.4488 168.47 18.5849 169.32 20.0089C170.171 21.417 170.596 22.9931 170.596 24.7372ZM188.093 33.4256C187.211 33.9856 186.224 34.2656 185.133 34.2656C184.058 34.2656 183.071 33.9856 182.173 33.4256C181.29 32.8656 180.584 32.1135 180.055 31.1695C179.525 30.2094 179.261 29.1534 179.261 28.0013C179.261 26.8493 179.525 25.8012 180.055 24.8572C180.584 23.8971 181.29 23.1371 182.173 22.5771C183.071 22.017 184.058 21.737 185.133 21.737C186.224 21.737 187.211 22.017 188.093 22.5771C188.976 23.1371 189.665 23.8971 190.163 24.8572C190.676 25.8012 190.933 26.8493 190.933 28.0013C190.933 29.1534 190.676 30.2014 190.163 31.1455C189.665 32.0895 188.976 32.8496 188.093 33.4256Z" fill="white"/>
</svg>
