<svg width="150" height="75" viewBox="0 0 150 75" fill="none" xmlns="http://www.w3.org/2000/svg">
<g clip-path="url(#clip0_506_1296)">
<path fill-rule="evenodd" clip-rule="evenodd" d="M115.954 16.0001C110.965 15.9928 106.127 17.7235 102.267 20.897C98.3812 17.7216 93.522 15.9928 88.513 16.0001C83.5224 15.9818 78.6814 17.7125 74.8283 20.897C71.0684 17.8445 66.317 16.0001 61.14 16.0001C56.1511 15.9928 51.3157 17.7235 47.4553 20.897C43.6972 17.8445 38.9457 16.0001 33.767 16.0001C21.7148 16.0001 12 25.7223 12 37.7875C12 49.8508 21.7148 59.5748 33.7688 59.5748C38.9457 59.5748 43.7666 57.7286 47.4553 54.678C51.2134 57.7286 55.9649 59.573 61.14 59.573C66.317 59.573 71.1378 57.7286 74.8265 54.678C78.7124 57.8515 83.5735 59.5821 88.5824 59.573C93.8306 59.573 98.5803 57.7286 102.338 54.678C106.096 57.7286 110.848 59.573 116.025 59.573C128.079 59.573 137.794 49.8526 137.794 37.7875C137.722 25.7938 128.008 16.0001 115.954 16.0001ZM102.267 47.5811C100.229 44.7266 99.1372 41.3001 99.1482 37.7875C99.1482 34.1685 100.282 30.7621 102.267 27.9938C104.305 30.8483 105.397 34.2748 105.388 37.7875C105.388 41.478 104.183 44.8128 102.267 47.5811ZM74.8265 47.5811C72.7886 44.7266 71.6966 41.3001 71.7057 37.7875C71.7057 34.1685 72.8397 30.7621 74.8265 27.9938C76.8644 30.8483 77.9564 34.2748 77.9455 37.7875C77.9455 41.478 76.7403 44.8128 74.8265 47.5811ZM47.3841 47.5811C45.3462 44.7266 44.2542 41.3001 44.2633 37.7875C44.2633 34.1685 45.3991 30.7621 47.3841 27.9938C49.422 30.8483 50.514 34.2748 50.503 37.7875C50.503 41.478 49.2978 44.8128 47.3841 47.5811ZM16.7515 37.7875C16.7515 28.4906 24.2677 20.897 33.6282 20.897C37.3443 20.886 40.9581 22.107 43.909 24.3748C41.0019 28.0653 39.3 32.678 39.3 37.7875C39.3 42.8255 41.0019 47.5096 43.909 51.2001C41.0731 53.4001 37.5269 54.678 33.6282 54.678C24.3389 54.678 16.7515 47.1558 16.7515 37.7875V37.7875ZM50.7861 51.2001C53.6932 47.5096 55.3951 42.897 55.3951 37.7875C55.3951 32.7476 53.6932 28.0653 50.7861 24.3748C53.622 22.1748 57.1683 20.897 61.067 20.897C64.9675 20.897 68.5137 22.1748 71.3478 24.3748C68.4425 28.0653 66.7406 32.678 66.7406 37.7875C66.7406 42.8255 68.4425 47.5096 71.3497 51.2001C68.5137 53.4001 64.9675 54.678 61.0688 54.678C57.1683 54.678 53.622 53.4001 50.7861 51.2001ZM78.2285 51.2001C81.1357 47.5096 82.8376 42.897 82.8376 37.7875C82.8376 32.7476 81.1357 28.0653 78.2285 24.3748C81.0644 22.1748 84.6089 20.897 88.5094 20.897C92.2255 20.886 95.8393 22.107 98.7903 24.3748C95.885 28.0653 94.183 32.678 94.183 37.7875C94.183 42.8255 95.885 47.5096 98.7921 51.2001C95.9543 53.4001 92.4099 54.678 88.5112 54.678C84.7951 54.689 81.1795 53.468 78.2285 51.2001ZM115.952 54.678C112.236 54.689 108.622 53.468 105.671 51.2001C108.576 47.5096 110.278 42.897 110.278 37.7875C110.278 32.7476 108.576 28.0653 105.669 24.3748C108.507 22.1748 112.051 20.897 115.95 20.897C125.241 20.897 132.829 28.4191 132.829 37.7875C132.829 47.1558 125.241 54.678 115.952 54.678V54.678Z" fill="#16182D"/>
</g>
<defs>
<clipPath id="clip0_506_1296">
<rect width="126" height="44" fill="white" transform="translate(12 16)"/>
</clipPath>
</defs>
</svg>
