<svg width="150" height="75" viewBox="0 0 150 75" fill="none" xmlns="http://www.w3.org/2000/svg">
<path fill-rule="evenodd" clip-rule="evenodd" d="M74.604 12.7002C110.811 12.7002 140.165 23.8133 140.165 37.5023C140.165 51.1932 110.811 62.2636 74.604 62.2636C38.3542 62.2636 9 51.1932 9 37.5023C9 23.8152 38.3561 12.7002 74.604 12.7002ZM74.604 15.1925C39.8359 15.1925 11.5786 25.2081 11.5786 37.5023C11.5786 49.8412 39.8359 59.7286 74.604 59.7286C109.458 59.7286 137.67 49.8412 137.67 37.5023C137.67 25.2081 109.458 15.1925 74.604 15.1925V15.1925ZM74.604 17.0515C108.316 17.0515 135.681 26.2221 135.681 37.5023C135.681 48.8272 108.314 57.9959 74.604 57.9959C40.851 57.9959 13.5679 48.8272 13.5679 37.5023C13.5679 26.2221 40.851 17.0515 74.604 17.0515V17.0515ZM60.1807 21.0666C49.6486 21.0666 45.3762 25.2916 45.3335 29.4758C45.2907 31.7136 46.9416 33.9961 49.3939 33.9961C53.7945 33.9961 56.3304 29.4331 56.5423 27.7839C56.5423 27.7839 56.6278 27.4886 56.375 27.2788C56.2467 27.1933 55.9083 27.2361 55.7801 27.5313C55.1888 28.9242 52.8203 30.5306 51.1284 30.8278C49.563 31.1249 48.507 30.2781 48.4215 28.9669C48.2523 25.7578 51.8888 22.2496 60.0524 22.2496C62.3801 22.2496 65.3417 22.8829 68.5989 23.6425L68.6807 23.6611C67.3719 23.9508 62.75 27.5128 59.1228 33.0656C58.1505 33.1919 54.0901 33.5318 52.7366 35.0528C52.6083 35.2199 52.4819 35.5171 52.4819 35.6025C52.5674 35.9386 52.8203 36.1095 53.2014 35.8123C54.0473 34.8411 57.4737 34.4603 58.2769 34.4195C53.2851 41.4321 48.6744 46.0378 44.5731 46.0378C44.1492 46.0378 43.7272 46.0805 43.2605 45.9542C41.6114 45.5735 40.6391 43.8408 40.6391 42.2771C40.6391 40.2082 42.6284 37.9685 43.7681 37.5451C44.1492 37.3779 44.3184 37.1643 44.3184 36.9953C44.3184 36.7428 44.151 36.5738 43.6844 36.5738C39.7504 37.5451 37.6366 40.7561 37.6793 43.3765C37.763 47.6851 41.0184 50.0938 44.6995 50.0938C49.8586 50.0938 52.4819 47.8541 60.9002 34.2486C63.6294 33.9738 65.2301 33.7825 66.645 33.5615L66.9461 33.5113L67.582 33.4055C67.582 33.4055 68.0895 34.6312 69.3593 34.6312C69.5713 34.6721 69.5266 34.4603 69.6549 33.9961C69.1046 33.9533 68.4706 33.5726 68.4706 33.1083C68.9782 32.8558 69.4002 32.5605 69.7814 32.2633C70.3317 31.7563 70.882 30.7015 70.882 29.9828C70.882 29.3068 70.3744 28.6716 69.6122 28.5453C68.2587 28.3336 67.2008 29.4331 67.0744 31.2493C67.0744 31.7136 67.2436 32.2633 67.2436 32.2633C67.2436 32.2633 64.2838 32.7703 61.7461 32.8966C64.875 27.6168 67.7512 25.7578 68.5989 24.9963C68.7662 24.8701 69.1901 24.4039 69.231 24.3203C69.3296 24.0771 69.2441 23.8895 69.1195 23.7743C72.3098 24.6379 78.4562 27.3196 84.3757 27.3196C88.3915 27.3196 93.1305 24.7419 93.1305 23.3899C93.1305 23.0519 93.1305 22.7139 92.2846 22.7139C91.355 22.7139 91.8607 22.7975 89.5349 23.1782C87.3355 23.5181 84.6286 23.4326 82.5128 23.4326C76.7606 23.3472 69.6977 22.1661 66.8643 21.6572C64.4103 21.2356 62.1681 21.0666 60.1807 21.0666V21.0666ZM111.57 29.7692H108.229L102.772 38.9806C102.348 38.1375 101.714 36.1522 99.2192 36.1095C95.0733 36.0668 93.467 38.8971 90.5909 41.6011C89.745 42.3625 88.7299 43.3765 86.4022 43.3765C85.0487 43.3765 83.9927 42.2771 84.2456 40.8842C84.4148 39.7848 84.7959 39.2351 85.599 38.9398C85.9802 40.0392 86.6997 40.6298 87.9267 40.6298C89.3211 40.5871 90.1261 39.3205 90.167 38.2211C90.167 37.2925 89.5758 36.1095 87.8839 36.0241C86.3185 35.9386 85.1342 36.6555 83.4424 38.6018C83.4424 38.6018 83.8644 35.7288 80.6927 35.8123C80.3544 35.8123 80.0179 35.8123 79.6776 35.9813C77.943 36.5311 75.7009 39.3205 73.9254 41.4748C74.0091 41.0532 74.0091 40.6298 74.0091 40.2063C74.0091 38.9806 73.5443 37.3761 72.6984 36.5311C72.5292 36.3639 72.36 36.3639 72.1908 36.3639C71.6405 36.3639 71.1776 36.8282 71.1776 37.5451C71.5996 37.9685 72.1499 39.0233 72.1499 40.0392C72.1499 41.0532 71.8524 42.9103 71.4286 43.6291C69.8222 46.3758 67.7921 48.1512 65.338 47.7705C64.0273 47.4733 63.1386 46.2068 63.3933 44.3051C63.5197 43.2075 64.1983 41.6865 64.8304 40.7579C65.8901 39.3205 67.6229 37.8422 70.1606 37.4596C70.1606 37.4596 70.287 36.9526 69.9487 36.6982C69.8223 36.4883 69.6531 36.2339 69.06 36.2339C65.4663 36.3639 63.2669 38.9398 61.9971 41.4748C61.5323 42.3625 60.8555 43.6291 60.4744 44.4332L60.4595 44.4703C60.3777 44.656 59.952 45.501 58.5706 46.5448C57.7675 47.1799 57.5128 47.3898 57.3864 47.3471C57.4291 47.6442 57.6392 48.0658 58.0222 48.4056C58.1486 48.4892 58.5706 48.2348 58.7398 48.1512C60.7291 47.0109 60.9392 46.4612 60.9392 46.4612C61.3631 48.8272 63.3933 50.0511 65.6354 50.0511C68.7216 50.0511 71.5568 47.2635 73.2059 44.8139C74.9405 42.2343 77.3091 39.6993 77.3091 39.6993C78.2386 38.8135 79.2128 38.2211 79.8041 38.2211C80.3544 38.2638 80.7336 38.7281 80.6091 39.2351C80.4269 39.9965 80.1833 40.7263 79.7446 41.5843L79.5084 42.0245L74.8977 49.8412H78.4934C80.5663 45.9542 80.65 45.8261 82.682 42.1081C83.2305 44.1788 84.3292 44.981 86.1066 45.0238C87.6311 45.0665 88.6871 44.9811 89.8286 44.3905C89.5312 45.5735 89.7022 46.7565 90.0833 47.5588C90.5053 48.5319 91.3531 49.7576 93.4242 49.7985C95.9211 49.7985 98.3733 48.7009 99.0928 48.0658C99.3047 49.2915 99.8959 49.9266 101.461 49.9266C104.633 49.8412 107.426 46.5875 109.117 44.4759C109.415 44.0952 109.794 43.4601 109.794 43.2911C109.794 43.0385 109.456 42.8695 109.287 42.8695C109.117 42.8695 108.822 43.2502 108.653 43.4601C107.848 44.3051 104.507 47.7705 102.688 47.854C103.068 47.854 102.054 48.0658 101.969 47.2635C101.932 46.8289 102.238 46.3015 102.434 45.9449L102.519 45.7852L111.57 29.7692V29.7692ZM99.1077 38.0799L99.3884 38.0948C101.125 38.2972 101.359 39.9222 100.602 41.5026L100.489 41.7273L100.954 41.8555C100.954 41.8555 99.5148 44.2642 98.0349 45.7425C95.4135 48.4056 93.7217 47.5161 93.3406 47.2208C92.9594 46.9236 92.6638 45.8688 92.833 44.812C92.9594 43.7572 93.7626 41.9818 94.5248 41.0532C95.856 39.4245 97.4474 38.2508 98.8176 38.0966L99.1077 38.0781V38.0799ZM69.4411 29.4758C69.7386 29.4331 69.865 29.7283 69.9059 29.9828C69.9914 30.4879 69.5694 31.2493 69.3147 31.5038C68.8443 32.0349 68.4911 32.1501 68.3386 32.1723L68.2922 32.1798H68.2568C68.1304 31.6709 68.0468 31.2066 68.2568 30.5306C68.426 29.8992 68.8071 29.6021 69.4411 29.4758V29.4758Z" fill="#16182D"/>
</svg>
