<svg width="150" height="75" viewBox="0 0 150 75" fill="none" xmlns="http://www.w3.org/2000/svg">
<path fill-rule="evenodd" clip-rule="evenodd" d="M39.3609 57.994C40.5316 57.9321 42.3288 57.9902 43.3391 57.994C45.1804 57.9952 46.9258 59.0738 47.527 60.5931H44.7473C44.597 60.5931 44.5275 60.4908 44.5086 60.4592C44.0084 59.6156 43.0221 59.07 41.9903 59.07C41.47 59.0422 40.8991 59.0624 40.7362 59.07C39.3243 59.07 37.8529 60.0955 37.8529 61.7802C37.8529 63.4965 39.2851 64.5082 40.7299 64.5208C41.1719 64.5271 41.6594 64.5258 42.0219 64.5208C43.0575 64.5031 44.0034 63.984 44.5048 63.1139C44.5591 63.0242 44.6399 62.9762 44.7447 62.9762H47.5257C46.893 64.5928 45.4254 65.5172 43.3782 65.5804C41.1707 65.6473 40.9926 65.6435 39.3091 65.5842C36.8527 65.4995 35 63.8641 35 61.784C35.0038 60.7775 35.4572 59.8265 36.2806 59.1091C37.1268 58.3716 37.9893 58.0597 39.3609 57.994ZM83.0051 58.047C83.0227 58.047 85.0207 58.0041 86.9883 58.047C89.4321 58.1013 91.3543 59.7318 91.3543 61.76C91.3543 63.8363 89.3955 65.5273 86.9883 65.5273C85.1912 65.564 83.37 65.5336 83.0556 65.5273H83.0076C80.603 65.5273 78.6505 63.8363 78.6505 61.76C78.6505 59.7116 80.603 58.047 83.0051 58.047ZM64.4097 58.1518C64.5676 58.1518 64.6825 58.2743 64.6825 58.4385V59.5979H60.8609C60.6563 59.5979 60.4871 59.7621 60.4871 59.9692V65.4314L57.9069 65.4288C57.739 65.4288 57.6228 65.2836 57.6228 65.156V61.1816C57.6228 60.4137 56.9812 59.5979 56.0252 59.5979H53.4829V58.4347C53.4829 58.2933 53.5852 58.1518 53.757 58.1518H64.4097ZM74.5725 58.1493C76.3583 58.1493 77.4608 59.3655 77.4608 60.4946C77.4608 61.5554 76.6374 62.4748 75.358 62.7678C75.3568 62.7678 77.3913 63.5458 77.4671 65.4314H74.6255C74.5573 64.4134 73.6682 62.8499 71.5011 62.8499H69.0661V65.4288H66.4898C66.3294 65.4288 66.217 65.3114 66.217 65.1535V59.6383C66.217 58.8048 66.8687 58.1493 67.7034 58.1493H74.5725ZM110.753 58.1493C113.133 58.1493 115 59.7835 115 61.8661V65.4288H112.55C112.261 65.4288 112.252 65.151 112.252 65.1459V61.6855C112.252 60.141 111.085 59.4299 110.293 59.4299H107.444C107.26 59.4299 107.069 59.5537 107.069 59.7974V65.4301H104.481C104.352 65.4301 104.221 65.3341 104.221 65.1535V58.4234C104.221 58.1758 104.457 58.1493 104.558 58.1493H110.753ZM51.6668 58.1493C51.8171 58.1493 51.9485 58.2781 51.9485 58.4297V65.4288H49.367C49.2344 65.4288 49.0879 65.3152 49.0879 65.1535V58.4272C49.0879 58.2756 49.2168 58.1493 49.3658 58.1493H51.6668ZM102.361 58.1493C102.368 58.1493 102.688 58.1367 102.688 58.4385V59.4577H95.9993C95.5636 59.4577 95.5661 59.8202 95.5661 59.8252V61.0919H101.405V62.37H95.5674V63.7554C95.5674 63.9727 95.7278 64.1242 95.9563 64.1242H102.688V65.1598C102.688 65.2293 102.621 65.4288 102.41 65.4288H94.2059C93.2676 65.4288 92.7068 64.6774 92.7068 63.9512V58.4385C92.7068 58.1594 92.9632 58.1493 92.9935 58.1493H102.361ZM85.637 59.1016C85.0737 59.07 84.3905 59.0978 84.3741 59.1016C82.9646 59.1016 81.5034 60.0993 81.5034 61.7714C81.5034 63.4561 82.9949 64.4993 84.3791 64.4993C84.9234 64.5183 85.637 64.4993 85.637 64.4993C87.0224 64.4993 88.5139 63.4561 88.5139 61.7714C88.5139 60.0993 87.054 59.1016 85.637 59.1016ZM73.5533 59.4299H69.7519C69.349 59.4299 69.0649 59.709 69.0649 60.1081V61.5605H73.5407C74.1355 61.5605 74.6167 61.078 74.6167 60.4883C74.6167 59.9136 74.1317 59.4299 73.5533 59.4299ZM99.6024 55.2623C99.9876 55.2623 100.32 55.3456 100.591 55.5149C100.867 55.6828 101.003 55.8836 101.003 56.1173C101.003 56.3572 100.87 56.5568 100.601 56.726C100.334 56.8952 99.999 56.9786 99.6024 56.9786C99.2172 56.9786 98.8586 56.8839 98.6123 56.726C98.3622 56.5681 98.1109 56.3471 97.8293 56.3471C97.5514 56.3471 97.2824 56.5934 97.0362 56.7462C96.7861 56.8978 96.4527 56.9773 96.0637 56.9773C95.6785 56.9773 95.3501 56.8952 95.0736 56.7247C94.802 56.5568 94.6631 56.356 94.6631 56.1185C94.6631 55.8836 94.802 55.6828 95.0736 55.5149C95.3501 55.3456 95.6798 55.2623 96.0637 55.2623C96.4552 55.2623 96.7773 55.3507 97.0564 55.5149C97.3355 55.679 97.5236 55.8975 97.8293 55.8975C98.1412 55.8975 98.3483 55.6778 98.6123 55.5149C98.8712 55.3507 99.216 55.2623 99.6024 55.2623ZM80.4476 28.2066C84.4157 30.9876 89.1808 35.4179 92.4328 38.7672C93.6578 40.0276 97.0134 43.3365 97.9088 44.5602C98.904 45.9192 99.1541 46.7552 99.1503 48.8959C99.1465 50.5503 99.5077 53.5598 97.5577 51.8953C95.5371 50.1702 93.5328 48.4602 91.3669 46.8083C87.9065 44.17 81.4314 39.458 77.4267 38.1825C73.8198 37.0332 71.5352 38.4376 68.8047 39.8571C64.065 42.3223 60.9809 45.1071 57.1429 47.9184L54.8734 49.7787C51.6567 52.3853 50.6186 54.0347 50.6274 49.4894C50.6338 45.3016 51.9068 44.5969 54.2583 42.0609C57.3942 38.6788 62.3095 33.9226 65.7838 31.0356L72.4129 26.4019C75.526 24.7689 78.3815 26.7593 80.4476 28.2079V28.2066ZM75.1282 27.2948L74.9691 27.31C74.9514 30.0518 75.3669 31.7491 73.3247 32.6344C68.7315 34.6248 67.0152 35.476 62.5444 38.3365C60.237 39.8116 58.1204 41.3423 56.1704 42.9273C51.8272 46.4572 52.388 45.712 52.1733 49.9239L57.3083 45.8573C61.2436 42.8843 70.127 36.0443 75.0524 36.1681C78.8841 36.2641 84.6039 40.188 87.3899 42.0281C90.4841 44.0702 93.6086 46.6441 96.4691 48.9742C96.8227 49.2634 97.2546 49.7824 97.6866 49.8809C97.7838 45.4557 96.8707 45.784 93.87 42.3716C90.258 38.262 78.1188 26.8187 74.9691 27.31L75.1282 27.2948ZM79.5825 10.83C83.9927 13.5024 93.1249 22.4212 97.0829 26.8452L97.6676 27.4703C97.7939 27.6118 97.6512 27.4451 97.8027 27.6269C98.337 28.271 98.9962 29.6009 99.1061 30.4938C99.2197 31.417 99.2387 34.0477 98.9293 35.2348C98.9091 35.3144 98.8876 35.3864 98.8636 35.4533C98.7878 35.6566 98.7878 35.6314 98.5441 35.596C97.5754 35.452 96.8606 34.4152 95.4752 33.353C90.6723 29.6691 84.3513 24.1337 78.8298 21.9615L76.8079 21.1911C76.0047 20.9713 75.0676 20.864 74.1431 20.9726C72.86 21.1229 71.1247 21.8945 70.0702 22.425C68.1505 23.3886 65.78 24.7828 64.0422 26.0622C61.4785 27.7507 59.113 29.5441 56.7211 31.4688C55.7739 32.2303 54.6953 33.108 53.6218 34.0072C52.8224 34.6766 50.9356 36.8892 50.7866 34.3684C50.6855 32.661 50.5719 30.4685 51.216 29.0844C52.5534 26.2163 62.2464 17.2912 64.9667 14.9383C67.053 13.1349 69.0611 11.5486 71.4543 10.1645C74.8769 8.18674 76.4732 8.94323 79.5838 10.8275L79.5825 10.83ZM74.9855 10.5636C75.1067 16.1103 74.8617 14.9851 70.2975 17.1687C65.237 19.5872 57.3096 24.7184 53.4273 28.4668C52.0912 29.7562 52.1063 30.8954 52.2149 33.0537C53.1192 32.7633 68.0318 19.2727 75.036 19.3939C82.02 19.5139 97.1182 32.9262 97.6676 33.1219C97.9859 29.3609 96.6825 28.5224 93.9445 25.6808C92.064 23.7296 90.2315 21.8579 88.3119 20.0469C86.1245 17.982 84.4019 16.4564 82.3471 14.7401C80.6345 13.3092 77.1388 10.5396 74.9855 10.5636Z" fill="#16182D"/>
</svg>
