<svg width="150" height="75" viewBox="0 0 150 75" fill="none" xmlns="http://www.w3.org/2000/svg">
<path fill-rule="evenodd" clip-rule="evenodd" d="M24.738 28.506C25.2131 28.5191 25.1627 28.853 25.0841 28.9681C23.6819 31.1494 20.3688 34.9901 17.9565 39.204C17.5571 39.8867 17.2597 40.3891 17.2597 41.1383C17.2597 42.1542 17.8938 43.3552 19.1678 43.8706C20.0059 44.2063 20.5335 44.2166 21.4379 44.2297C28.1531 44.4374 30.8451 44.2559 36.854 44.052C37.201 44.051 37.5237 43.8172 37.6397 43.676C38.8014 42.4647 39.4711 40.2871 39.4711 38.3658C39.4711 34.0865 36.3891 30.2318 31.5812 28.3779L30.8096 29.3675C35.0235 31.1092 37.201 34.5878 37.201 38.3135C37.201 39.1516 37.0588 39.9635 36.8016 40.7389C36.6108 41.2796 36.376 41.5901 35.6932 41.6004C30.7964 41.7051 28.024 41.7818 23.1142 41.6527C22.4809 41.6397 22.2761 41.4087 22.1732 40.9072C22.0946 40.6098 22.1601 40.3628 22.365 39.9897C24.9691 35.3764 29.5056 30.1036 30.3961 28.853C30.5654 28.622 30.4859 28.1562 29.905 28.0019C28.2054 27.4996 26.2983 27.2957 24.3648 27.2957C15.6106 27.3312 9.43609 32.255 9.29395 38.3658C9.64473 45.7011 16.023 49.4894 24.3648 49.4894C29.4692 49.4894 34.1451 47.685 36.8811 44.8237L34.3537 44.9256C32.0199 47.0012 28.2812 48.1106 24.4144 48.1106C17.3663 48.1106 11.6277 44.6057 11.6277 38.3135C11.6277 32.9014 17.3653 28.4929 24.4144 28.4929L24.738 28.506ZM82.6399 41.7547L87.4075 38.624L80.191 33.2484V34.5645H69.5165C68.1237 34.5645 66.9779 35.5551 66.7702 36.8449L79.1453 36.8318V39.1777L69.6839 39.1908C68.1892 39.1908 66.9648 40.3264 66.8993 41.7547H82.6399ZM127.972 34.5252H138.915V32.2185H127.91C123.795 32.2185 120.432 35.3632 120.264 39.3068L133.529 39.2928C134.391 39.2928 135.087 39.8606 135.087 40.5444C135.087 41.2403 134.39 41.795 133.529 41.795L118.924 41.794V32.2185H114.592V41.7313H105.893C104.617 41.5237 104.216 40.5967 104.216 38.7914L104.217 32.2185H97.2318L90.9517 36.2902L85.4872 32.2185H68.6784C64.9528 32.2185 61.8473 34.7824 61.1636 38.1975H64.5403C63.2663 39.0617 62.286 40.2871 61.7444 41.7323L51.0568 41.7313C49.7969 41.5237 49.3834 40.5967 49.3834 38.7914L49.3843 32.2185H45.0647V38.3527C44.8833 42.4151 47.087 43.8706 49.6013 44.1016L83.1805 44.1006L89.3681 40.1047L94.7698 44.154H101.379L92.9646 37.8252L99.8845 33.3401L99.8976 38.3527C99.7199 42.4151 102.141 43.8706 104.656 44.1016L136.08 44.1006C138.245 44.1006 140 42.517 140 40.5444C140 38.5838 138.244 37.0002 136.08 37.0002H125.227C125.329 35.6205 126.517 34.5252 127.972 34.5252Z" fill="#16182D"/>
</svg>
