<svg width="149" height="58" viewBox="0 0 149 58" fill="none" xmlns="http://www.w3.org/2000/svg">
<rect width="148.797" height="58" fill="#16182D"/>
<path fill-rule="evenodd" clip-rule="evenodd" d="M123.5 15.8983C120.575 15.8983 118.203 18.2698 118.203 21.1952C118.203 24.1205 120.575 26.4921 123.5 26.4921C126.425 26.4921 128.797 24.1205 128.797 21.1952C128.797 18.2698 126.425 15.8983 123.5 15.8983ZM123.043 21.9014L119.616 20.8197L126.221 18.7233L124.125 25.3292L123.043 21.9014Z" fill="#FFE4CF"/>
<path fill-rule="evenodd" clip-rule="evenodd" d="M114.294 24.4181C114.289 24.4155 114.284 24.4129 114.279 24.4103C113.758 24.1253 113.152 23.9828 112.463 23.9828C111.597 23.9828 110.783 24.1451 110.022 24.4697C109.268 24.7942 108.603 25.2454 108.025 25.8232C107.448 26.3931 106.995 27.0541 106.666 27.8061C106.338 28.5581 106.173 29.3654 106.173 30.2282C106.173 31.091 106.338 31.8984 106.666 32.6504C106.995 33.4024 107.448 34.0673 108.025 34.6451C108.603 35.2151 109.268 35.6623 110.022 35.9868C110.783 36.3114 111.597 36.4736 112.463 36.4736C113.152 36.4736 113.758 36.3351 114.279 36.0581C114.808 35.7731 115.257 35.405 115.626 34.9538V36.3312C115.626 36.7428 115.534 37.1029 115.349 37.4116C115.165 37.7203 114.912 37.9776 114.591 38.1834C114.271 38.3892 113.906 38.5436 113.497 38.6465C113.096 38.7494 112.675 38.8008 112.234 38.8008C111.825 38.8008 111.429 38.7217 111.044 38.5634C110.667 38.413 110.33 38.1953 110.034 37.9103C109.745 37.6254 109.517 37.285 109.348 36.8892L106.318 38.2547C106.654 39.0066 107.123 39.6715 107.725 40.2494C108.326 40.8272 109.015 41.2784 109.793 41.6029C110.571 41.9354 111.385 42.1016 112.234 42.1016C113.132 42.1016 113.982 41.9671 114.784 41.6979C115.594 41.4288 116.307 41.0409 116.924 40.5343C117.55 40.0277 118.043 39.4182 118.404 38.7058C118.764 38.0014 118.945 37.2098 118.945 36.3312V29.9183C116.681 28.8746 114.955 26.8651 114.294 24.4181ZM26.5421 23.9591C27.7127 23.9591 28.775 24.2401 29.729 24.8021C30.6911 25.3641 31.4567 26.1201 32.026 27.0699C32.5952 28.0119 32.8798 29.0567 32.8798 30.2045C32.8798 31.0673 32.7155 31.8786 32.3868 32.6385C32.058 33.3984 31.6011 34.0673 31.0158 34.6451C30.4385 35.2151 29.7651 35.6623 28.9954 35.9868C28.2338 36.3114 27.416 36.4736 26.5421 36.4736C25.8526 36.4736 25.2393 36.3232 24.7022 36.0225C24.165 35.7217 23.704 35.3417 23.3192 34.8826V36.1649H20V18.3549H23.3192V25.5501C23.704 25.0831 24.165 24.7032 24.7022 24.4103C25.2393 24.1095 25.8526 23.9591 26.5421 23.9591ZM26.494 33.3034C27.0472 33.3034 27.5483 33.1649 27.9973 32.8879C28.4543 32.6108 28.815 32.2388 29.0796 31.7718C29.3442 31.2968 29.4765 30.7744 29.4765 30.2045C29.4765 29.6346 29.3402 29.1161 29.0676 28.6491C28.803 28.1821 28.4422 27.81 27.9852 27.533C27.5363 27.248 27.0392 27.1055 26.494 27.1055C25.9488 27.1055 25.4558 27.248 25.0148 27.533C24.5819 27.81 24.2372 28.186 23.9806 28.661C23.7321 29.128 23.6078 29.6425 23.6078 30.2045C23.6078 30.7823 23.7321 31.3048 23.9806 31.7718C24.2372 32.2388 24.5819 32.6108 25.0148 32.8879C25.4558 33.1649 25.9488 33.3034 26.494 33.3034ZM39.5914 36.4736C38.485 36.4736 37.4748 36.1926 36.5608 35.6306C35.6549 35.0686 34.9293 34.3127 34.3841 33.3628C33.847 32.4129 33.5784 31.3641 33.5784 30.2164C33.5784 29.3536 33.7347 28.5462 34.0474 27.7942C34.3601 27.0343 34.789 26.3694 35.3342 25.7995C35.8874 25.2216 36.5288 24.7704 37.2583 24.4459C37.9879 24.1214 38.7656 23.9591 39.5914 23.9591C40.5454 23.9591 41.4153 24.1609 42.201 24.5646C42.9947 24.9683 43.6642 25.5185 44.2093 26.215C44.7625 26.9116 45.1554 27.6992 45.3879 28.5778C45.6284 29.4565 45.6685 30.3707 45.5082 31.3206H37.1621C37.2664 31.6689 37.4267 31.9855 37.6432 32.2705C37.8676 32.5475 38.1402 32.7691 38.4609 32.9354C38.7896 33.1016 39.1665 33.1887 39.5914 33.1966C40.0083 33.2045 40.3931 33.1095 40.7459 32.9116C41.0986 32.7137 41.3993 32.4486 41.6478 32.1161L45.0391 32.8879C44.5501 33.9407 43.8205 34.8035 42.8504 35.4763C41.8803 36.1412 40.794 36.4736 39.5914 36.4736ZM37.0419 28.8984H42.1529C42.0487 28.5026 41.8723 28.1464 41.6238 27.8298C41.3752 27.5132 41.0746 27.2639 40.7218 27.0818C40.3771 26.8997 40.0003 26.8087 39.5914 26.8087C39.1905 26.8087 38.8137 26.8997 38.4609 27.0818C38.1162 27.2639 37.8195 27.5132 37.571 27.8298C37.3305 28.1385 37.1541 28.4947 37.0419 28.8984ZM46.6973 18.3549V36.1649H50.0165V18.3549H46.6973ZM57.4337 36.4736C56.3273 36.4736 55.3171 36.1926 54.4031 35.6306C53.4972 35.0686 52.7716 34.3127 52.2264 33.3628C51.6892 32.4129 51.4207 31.3641 51.4207 30.2164C51.4207 29.3536 51.577 28.5462 51.8897 27.7942C52.2024 27.0343 52.6313 26.3694 53.1765 25.7995C53.7297 25.2216 54.371 24.7704 55.1006 24.4459C55.8302 24.1214 56.6079 23.9591 57.4337 23.9591C58.3877 23.9591 59.2576 24.1609 60.0433 24.5646C60.837 24.9683 61.5064 25.5185 62.0516 26.215C62.6048 26.9116 62.9977 27.6992 63.2302 28.5778C63.4707 29.4565 63.5108 30.3707 63.3504 31.3206H55.0044C55.1086 31.6689 55.269 31.9855 55.4854 32.2705C55.7099 32.5475 55.9825 32.7691 56.3032 32.9354C56.6319 33.1016 57.0087 33.1887 57.4337 33.1966C57.8506 33.2045 58.2354 33.1095 58.5881 32.9116C58.9409 32.7137 59.2416 32.4486 59.4901 32.1161L62.8814 32.8879C62.3924 33.9407 61.6628 34.8035 60.6927 35.4763C59.7226 36.1412 58.6362 36.4736 57.4337 36.4736ZM54.8841 28.8984H59.9952C59.891 28.5026 59.7146 28.1464 59.466 27.8298C59.2175 27.5132 58.9169 27.2639 58.5641 27.0818C58.2193 26.8997 57.8425 26.8087 57.4337 26.8087C57.0328 26.8087 56.656 26.8997 56.3032 27.0818C55.9585 27.2639 55.6618 27.5132 55.4133 27.8298C55.1728 28.1385 54.9964 28.4947 54.8841 28.8984ZM76.9912 24.2916H73.672L73.8163 25.5976C73.3754 25.1227 72.8583 24.7309 72.265 24.4222C71.6797 24.1135 71.0183 23.9591 70.2807 23.9591C69.4229 23.9591 68.6211 24.1174 67.8755 24.434C67.1379 24.7507 66.4845 25.19 65.9153 25.752C65.346 26.314 64.9051 26.9631 64.5924 27.6992C64.2797 28.4354 64.1234 29.2269 64.1234 30.0739C64.1234 30.9604 64.2878 31.7916 64.6165 32.5673C64.9532 33.3351 65.4182 34.0119 66.0115 34.5976C66.6048 35.1834 67.2902 35.6425 68.0679 35.975C68.8456 36.3074 69.6834 36.4736 70.5814 36.4736C71.2388 36.4736 71.812 36.3312 72.3011 36.0462C72.7901 35.7612 73.191 35.3892 73.5037 34.9301L73.66 36.1649H76.9912V24.2916ZM71.9764 32.9116C71.5354 33.1887 71.0424 33.3272 70.4972 33.3272C69.952 33.3272 69.4549 33.1887 69.006 32.9116C68.557 32.6346 68.1962 32.2625 67.9236 31.7955C67.659 31.3206 67.5268 30.7982 67.5268 30.2282C67.5268 29.6583 67.659 29.1398 67.9236 28.6728C68.1882 28.1979 68.545 27.8219 68.9939 27.5449C69.4429 27.2678 69.944 27.1293 70.4972 27.1293C71.0424 27.1293 71.5354 27.2678 71.9764 27.5449C72.4173 27.8219 72.7661 28.1939 73.0226 28.661C73.2792 29.128 73.4075 29.6504 73.4075 30.2282C73.4075 30.7982 73.2792 31.3206 73.0226 31.7955C72.7661 32.2625 72.4173 32.6346 71.9764 32.9116ZM82.3861 36.3787C81.7688 36.3312 81.1755 36.2045 80.6063 35.9987C80.037 35.785 79.5279 35.5 79.079 35.1438C78.638 34.7797 78.2933 34.3443 78.0447 33.8377L80.8347 32.6504C80.9229 32.7771 81.0552 32.9156 81.2316 33.066C81.408 33.2085 81.6204 33.3351 81.869 33.4459C82.1255 33.5567 82.4222 33.6122 82.7589 33.6122C83.0074 33.6122 83.248 33.5845 83.4805 33.529C83.713 33.4657 83.9014 33.3668 84.0457 33.2322C84.19 33.0897 84.2622 32.9037 84.2622 32.6742C84.2622 32.4209 84.17 32.2269 83.9856 32.0924C83.8012 31.9578 83.5767 31.8589 83.3121 31.7955C83.0555 31.7243 82.807 31.6649 82.5665 31.6174C81.8289 31.4908 81.1314 31.2652 80.474 30.9406C79.8246 30.6082 79.2954 30.1807 78.8865 29.6583C78.4777 29.1359 78.2732 28.5106 78.2732 27.7823C78.2732 26.9829 78.4857 26.2942 78.9106 25.7164C79.3355 25.1306 79.8887 24.6794 80.5702 24.3628C81.2517 24.0462 81.9892 23.8879 82.783 23.8879C83.721 23.8879 84.5909 24.0818 85.3926 24.4697C86.1943 24.8575 86.8397 25.4037 87.3288 26.1082L84.7071 27.6398C84.6029 27.4894 84.4666 27.347 84.2982 27.2124C84.1379 27.0699 83.9495 26.9512 83.733 26.8562C83.5246 26.7533 83.3001 26.6939 83.0596 26.6781C82.7469 26.6544 82.4623 26.6741 82.2057 26.7375C81.9492 26.7929 81.7447 26.8997 81.5924 27.058C81.4481 27.2164 81.3759 27.4301 81.3759 27.6992C81.3759 27.9604 81.4922 28.1544 81.7247 28.281C81.9572 28.3997 82.2258 28.4908 82.5304 28.5541C82.8351 28.6095 83.1036 28.6768 83.3362 28.7559C84.0337 28.9776 84.6871 29.2625 85.2964 29.6108C85.9137 29.9512 86.4108 30.3707 86.7876 30.8694C87.1644 31.3681 87.3408 31.9538 87.3168 32.6267C87.3168 33.4103 87.0802 34.099 86.6072 34.6926C86.1342 35.2784 85.5209 35.7256 84.7672 36.0343C84.0216 36.3351 83.2279 36.4499 82.3861 36.3787ZM91.8315 24.2916H88.5123V36.1649H91.8315V24.2916ZM88.9813 22.4512C89.3101 22.7678 89.7149 22.9261 90.196 22.9261C90.677 22.9261 91.0739 22.7678 91.3865 22.4512C91.7072 22.1346 91.8676 21.7427 91.8676 21.2757C91.8676 20.8087 91.7032 20.4169 91.3745 20.1002C91.0538 19.7836 90.657 19.6253 90.1839 19.6253C89.7109 19.6253 89.3101 19.7836 88.9813 20.1002C88.6526 20.4169 88.4883 20.8087 88.4883 21.2757C88.4883 21.7427 88.6526 22.1346 88.9813 22.4512ZM105.247 28.6135V36.1649H101.928V29.5158C101.928 29.0963 101.823 28.7203 101.615 28.3879C101.415 28.0475 101.142 27.7784 100.797 27.5805C100.46 27.3826 100.084 27.2836 99.6667 27.2836C99.2498 27.2836 98.869 27.3826 98.5243 27.5805C98.1795 27.7784 97.9069 28.0475 97.7065 28.3879C97.5061 28.7203 97.4059 29.0963 97.4059 29.5158V36.1649H94.0867L94.0747 24.2916H97.3938L97.4059 25.1702C97.8067 24.7902 98.2757 24.4934 98.8129 24.2797C99.3581 24.066 99.9313 23.9591 100.533 23.9591C101.406 23.9591 102.196 24.1689 102.902 24.5884C103.615 25.0079 104.184 25.5699 104.609 26.2744C105.034 26.971 105.247 27.7507 105.247 28.6135ZM113.99 32.9116C113.549 33.1887 113.056 33.3272 112.511 33.3272C111.974 33.3272 111.481 33.1887 111.032 32.9116C110.591 32.6346 110.238 32.2625 109.973 31.7955C109.709 31.3206 109.577 30.7982 109.577 30.2282C109.577 29.6583 109.709 29.1398 109.973 28.6728C110.238 28.1979 110.591 27.8219 111.032 27.5449C111.481 27.2678 111.974 27.1293 112.511 27.1293C113.056 27.1293 113.549 27.2678 113.99 27.5449C114.431 27.8219 114.776 28.1979 115.024 28.6728C115.281 29.1398 115.409 29.6583 115.409 30.2282C115.409 30.7982 115.281 31.3166 115.024 31.7837C114.776 32.2507 114.431 32.6267 113.99 32.9116Z" fill="white"/>
</svg>
