<svg width="150" height="75" viewBox="0 0 150 75" fill="none" xmlns="http://www.w3.org/2000/svg">
<path d="M92.7777 37.9999C92.7777 47.8248 84.8248 55.7777 74.9999 55.7777V37.9999H92.7777ZM74.9999 20.2222V37.9999H57.2222C57.2222 28.1751 65.1751 20.2222 74.9999 20.2222Z" fill="#16182D"/>
<path d="M75 20.2222V21.1969C84.2643 21.1969 91.803 28.7339 91.803 38H92.7778C92.7778 28.1822 84.8178 20.2222 75 20.2222ZM75 54.803C65.7357 54.803 58.197 47.2661 58.197 38H57.2222C57.2222 47.8178 65.1822 55.7778 75 55.7778M75 8C58.4319 8 45 21.4319 45 38C45 54.5681 58.4319 68 75 68C91.5681 68 105 54.5681 105 38C105 21.4319 91.5681 8 75 8V8ZM103.049 38C103.049 53.4904 90.4921 66.0492 75 66.0492C59.5079 66.0492 46.9508 53.4904 46.9508 38C46.9508 22.5096 59.5096 9.95085 75 9.95085C90.4904 9.95085 103.049 22.5096 103.049 38V38Z" fill="#16182D"/>
<path d="M62.1801 23.5273C63.1388 22.5245 63.6816 21.3659 62.7229 20.2599C62.2013 19.6596 61.3254 19.5283 60.5994 19.8241L60.5271 19.8521L60.5501 19.7891C60.6576 19.5038 60.7263 18.5938 59.9456 17.9655C59.565 17.6592 59.0874 17.5455 58.6045 17.5945C57.704 17.6855 57.0115 18.2962 55.1259 20.3841C54.5567 21.0142 53.7284 22.0082 53.2314 22.6523L58.4107 27.5315C60.1271 25.6449 60.8267 24.9431 62.1801 23.5273ZM55.4219 22.3337C56.4652 21.0667 57.5736 19.9168 58.0759 19.4618C58.2345 19.3183 58.4072 19.1748 58.6169 19.1188C58.957 19.026 59.3077 19.2658 59.387 19.6123C59.4663 19.9606 59.246 20.2914 59.001 20.5644C58.4495 21.1822 56.4264 23.284 56.4264 23.284L55.4219 22.3337ZM57.4503 24.2448C57.4503 24.2448 59.4205 22.1762 60.0637 21.5147C60.3192 21.2522 60.4831 21.0929 60.6593 21.0072C60.8866 20.8969 61.1351 20.8741 61.3572 21.0212C61.5757 21.1664 61.6761 21.4167 61.6215 21.6652C61.5563 21.961 61.3131 22.2427 61.1122 22.458C60.8408 22.7468 58.5041 25.2302 58.5006 25.2337L57.4503 24.2448V24.2448ZM75.5926 17.7082L77.2509 14.019L77.3566 13.6917L77.3266 14.033L77.5011 18.963C78.0826 19.0173 78.6836 19.0978 79.2757 19.1958L79.0061 11.8944C78.1778 11.8034 77.3531 11.7386 76.5283 11.7036L74.8947 15.7306L74.8366 16.0299L74.7784 15.7306L73.1466 11.7036C72.3219 11.7386 71.4971 11.8034 70.6689 11.8944L70.3992 19.1958C70.9914 19.0978 71.5923 19.019 72.1738 18.963L72.3483 14.033L72.3183 13.6917L72.4241 14.019L74.0823 17.7082H75.5926H75.5926ZM89.3645 25.3404C89.7716 25.7744 90.3585 26.4745 90.688 26.8997L96.7572 23.074C96.4541 22.6803 95.9712 22.0817 95.6099 21.6599L91.7665 24.1836L91.5039 24.4076L91.6995 24.1241L93.3966 20.7604L92.1965 19.5686L88.8077 21.2539L88.5222 21.4482L88.7495 21.1874L91.2924 17.3722C90.8448 16.9942 90.4148 16.6477 89.8668 16.2276L86.0145 22.2497C86.5027 22.6225 87.1459 23.1703 87.5565 23.5431L91.1832 21.6739L91.4158 21.5042L91.2449 21.7352L89.3645 25.3404Z" fill="#16182D"/>
</svg>
